# xmcd
#
# Track frame offsets:
#	150
#	14553
#	29211
#	45296
#	57189
#	80862
#	95549
#	109869
#	124061
#	139113
#	154216
#	171955
#	186352
#	203753
#	221212
#
# Disc length: 3159 seconds
#
# Revision: 1
# Processed by: cddbd v1.5.2PL0 Copyright (c) Steve Scherf et al.
# Submitted via: audiograbber 1.83.01
#
DISCID=e00c550f
DTITLE=Nianell - Just Be
DYEAR=2014
DGENRE=Easy Listening
TTITLE0=To the light
TTITLE1=Burning in my soul
TTITLE2=Got to give myself
TTITLE3=You gotta know what's going on
TTITLE4=The sound of silence
TTITLE5=Just be
TTITLE6=All is perfect
TTITLE7=We've only just begun
TTITLE8=You showed me how
TTITLE9=Who's gonna be
TTITLE10=You prefer
TTITLE11=I live
TTITLE12=Hello
TTITLE13=Morning has broken
TTITLE14=Nou begin ons weer van voor
EXTD=
EXTT0=
EXTT1=
EXTT2=
EXTT3=
EXTT4=
EXTT5=
EXTT6=
EXTT7=
EXTT8=
EXTT9=
EXTT10=
EXTT11=
EXTT12=
EXTT13=
EXTT14=Bonus track
PLAYORDER=
